<svg width="141" height="106" viewBox="0 0 141 106" fill="none" xmlns="http://www.w3.org/2000/svg">
<path d="M25.5 30V0C25.5 0 48.5 0 48.5 15V30H64C64 30 59 33.5 55 41C51 48.5 52 54 52 54H48.5V86C48.5 86 48.327 90.8502 50.5 96.5C52.673 102.15 57 106 57 106H48.5C48.5 106 25.5 106 25.5 90V54H0C0 54 1 30 15 30H25.5Z" fill="#7CD8FF"/>
<path fill-rule="evenodd" clip-rule="evenodd" d="M60.7376 54.9766H85.5593C85.3233 54.9766 93.1138 42.754 101.208 50.1938C109.302 58.6965 89.8762 60.2908 89.8762 60.2908C89.8762 60.2908 57.5 60.2908 57.5 83.6731C57.5 107.055 81.2425 105.993 81.2425 105.993C81.2425 105.993 89.3366 105.993 94.7326 103.336C100.129 100.678 104.445 94.8329 104.445 94.8329V104.93L140.5 104.93C140.5 104.93 129.807 104.93 129.807 94.8329V52.8509C129.807 52.8509 129.807 30 94.7326 30C59.6584 30 60.7376 54.9766 60.7376 54.9766ZM102.191 72.3076V79.6766C102.191 87.0456 91.0742 94.5657 83.8482 88.1792C76.6222 81.7928 86.8394 76.3924 90.5184 75.1418C94.1974 73.8912 102.191 72.3076 102.191 72.3076Z" fill="#7CD8FF"/>
</svg>
